<?xml version="1.0" encoding="iso-8859-1"?>
<!-- Generator: Adobe Illustrator 19.0.0, SVG Export Plug-In . SVG Version: 6.00 Build 0)  -->
<svg version="1.1" id="Capa_1" xmlns="http://www.w3.org/2000/svg" xmlns:xlink="http://www.w3.org/1999/xlink" x="0px" y="0px"
	 viewBox="0 0 511.926 511.926" style="enable-background:new 0 0 511.926 511.926;" xml:space="preserve">
<rect x="179.972" y="179.973" style="fill:#94C1FF;" width="151.98" height="119.98"/>
<rect x="179.972" y="179.973" style="fill:#D7E9FF;" width="15.998" height="121.32"/>
<rect x="315.952" y="179.973" style="fill:#5C9EFF;" width="15.998" height="121.32"/>
<rect x="435.932" y="195.973" style="fill:#94C1FF;" width="47.994" height="143.98"/>
<g>
	<rect x="255.962" y="12.003" style="fill:#5C9EFF;" width="51.992" height="15.998"/>
	<polygon style="fill:#5C9EFF;" points="371.944,43.994 291.956,43.994 307.954,27.996 371.944,27.996 363.947,35.995 	"/>
</g>
<rect x="4.002" y="491.933" style="fill:#D7E9FF;" width="503.93" height="15.997"/>
<polygon style="fill:#5C9EFF;" points="51.993,139.98 19.997,195.972 83.988,195.972 "/>
<polygon style="fill:#94C1FF;" points="51.993,139.98 19.997,195.972 27.996,195.972 55.992,146.979 "/>
<polygon style="fill:#2287FF;" points="55.984,146.955 83.988,195.972 75.989,195.972 52.007,153.993 "/>
<polygon style="fill:#5C9EFF;" points="459.934,139.98 427.938,195.972 491.927,195.972 "/>
<polygon style="fill:#94C1FF;" points="459.934,139.98 427.938,195.972 435.935,195.972 463.931,146.979 "/>
<polygon style="fill:#2287FF;" points="463.923,146.955 491.927,195.972 483.93,195.972 459.948,153.993 "/>
<rect x="27.993" y="195.973" style="fill:#94C1FF;" width="47.993" height="143.98"/>
<rect x="27.993" y="195.973" style="fill:#D7E9FF;" width="7.999" height="143.98"/>
<rect x="67.993" y="195.973" style="fill:#5C9EFF;" width="7.999" height="143.98"/>
<rect x="435.932" y="195.973" style="fill:#D7E9FF;" width="8" height="143.98"/>
<rect x="475.932" y="195.973" style="fill:#5C9EFF;" width="8" height="143.98"/>
<polygon style="fill:#94C1FF;" points="347.948,163.977 331.951,179.974 179.973,179.974 163.975,163.977 163.975,99.985 
	195.971,99.985 195.971,115.984 219.967,115.984 219.967,99.985 291.956,99.985 291.956,115.984 315.952,115.984 315.944,99.985 
	347.948,99.985 "/>
<polygon style="fill:#D7E9FF;" points="179.973,99.985 163.975,99.985 163.975,163.977 179.973,179.974 199.47,179.974 
	179.973,159.977 "/>
<polygon style="fill:#5C9EFF;" points="331.951,99.985 347.948,99.985 347.948,163.977 331.951,179.974 312.454,179.974 
	331.951,159.977 "/>
<g>
	<rect x="179.972" y="299.953" style="fill:#D7E9FF;" width="151.98" height="191.97"/>
	<polygon style="fill:#D7E9FF;" points="195.971,307.955 179.973,323.953 107.984,323.953 91.987,307.955 91.987,259.963 
		107.977,259.963 107.984,275.96 131.98,275.96 131.98,259.963 155.977,259.963 155.977,275.96 179.973,275.96 179.973,259.963 
		195.971,259.963 	"/>
</g>
<polygon style="fill:#FFFFFF;" points="99.986,259.963 91.987,259.963 91.987,307.955 107.984,323.953 118.155,323.953 
	99.986,304.792 "/>
<polygon style="fill:#94C1FF;" points="187.972,259.963 195.971,259.963 195.971,307.955 179.973,323.953 169.802,323.953 
	187.972,304.792 "/>
<g>
	<polygon style="fill:#D7E9FF;" points="419.939,307.955 403.941,323.953 331.951,323.953 315.952,307.955 315.952,259.963 
		331.943,259.963 331.951,275.96 355.947,275.96 355.947,259.963 379.944,259.963 379.944,275.96 403.941,275.96 403.941,259.963 
		419.939,259.963 	"/>
	<rect x="107.982" y="323.953" style="fill:#D7E9FF;" width="71.99" height="167.98"/>
	<rect x="331.952" y="323.953" style="fill:#D7E9FF;" width="71.99" height="167.98"/>
</g>
<polygon style="fill:#FFFFFF;" points="323.952,259.963 315.952,259.963 315.952,307.955 331.951,323.953 342.12,323.953 
	323.952,304.792 "/>
<polygon style="fill:#94C1FF;" points="411.939,259.963 419.939,259.963 419.939,307.955 403.941,323.953 393.771,323.953 
	411.939,304.792 "/>
<g>
	<polygon style="fill:#D7E9FF;" points="107.984,491.929 4,491.929 4,339.951 11.998,339.951 11.998,323.953 35.995,323.953 
		35.995,339.951 59.992,339.951 59.992,323.953 83.988,323.953 83.988,339.951 107.984,339.951 	"/>
	<polygon style="fill:#D7E9FF;" points="403.941,491.929 507.926,491.929 507.926,339.951 499.927,339.951 499.927,323.953 
		475.93,323.953 475.93,339.951 451.934,339.951 451.934,323.953 427.938,323.953 427.938,339.951 403.941,339.951 	"/>
</g>
<g>
	<path style="fill:#5C9EFF;" d="M459.934,243.965c-4.422,0-8,3.577-8,7.999v15.998h15.998v-15.999
		C467.931,247.542,464.353,243.965,459.934,243.965z"/>
	<path style="fill:#5C9EFF;" d="M51.993,243.965c-4.421,0-7.999,3.577-7.999,7.999v15.998h15.998v-15.999
		C59.992,247.542,56.414,243.965,51.993,243.965z"/>
	<path style="fill:#5C9EFF;" d="M255.962,355.948c-24.294,0-43.994,19.7-43.994,43.993v91.987h87.988v-91.987
		C299.956,375.649,280.255,355.948,255.962,355.948z"/>
</g>
<path style="fill:#94C1FF;" d="M259.033,356.245c-1.031-0.078-2.023-0.297-3.07-0.297c-24.294,0-43.994,19.7-43.994,43.993v91.987
	h7.999v-91.987C219.967,377.32,237.058,358.697,259.033,356.245z"/>
<path style="fill:#2287FF;" d="M255.962,355.948c-1.047,0-2.039,0.219-3.07,0.297c21.974,2.452,39.064,21.075,39.064,43.696v91.987
	h8v-91.987C299.956,375.649,280.255,355.948,255.962,355.948z"/>
<g>
	<rect x="4.002" y="491.933" style="fill:#FFFFFF;" width="16.01" height="15.997"/>
	<polygon style="fill:#FFFFFF;" points="20.004,491.929 4,491.929 4,339.951 11.998,339.951 11.998,323.953 20.004,323.953 	"/>
</g>
<g>
	<rect x="491.922" y="491.933" style="fill:#94C1FF;" width="16.01" height="15.997"/>
	<polygon style="fill:#94C1FF;" points="491.927,491.929 507.934,491.929 507.934,339.951 499.935,339.951 499.935,323.953 
		491.927,323.953 	"/>
</g>
<rect x="107.982" y="323.953" style="fill:#FFFFFF;" width="8.01" height="167.98"/>
<rect x="171.962" y="323.953" style="fill:#94C1FF;" width="8.01" height="167.98"/>
<rect x="331.952" y="323.953" style="fill:#FFFFFF;" width="8.01" height="167.98"/>
<rect x="395.932" y="323.953" style="fill:#94C1FF;" width="8.01" height="167.98"/>
<g>
	<path style="fill:#116FFF;" d="M131.98,487.929c-2.211,0-4-1.788-4-3.999V355.948c0-2.211,1.789-3.999,4-3.999s4,1.788,4,3.999
		v127.981C135.98,486.141,134.191,487.929,131.98,487.929z"/>
	<path style="fill:#116FFF;" d="M107.984,487.929c-2.21,0-4-1.788-4-3.999V323.953c0-2.211,1.789-4,4-4s4,1.789,4,4V483.93
		C111.984,486.141,110.195,487.929,107.984,487.929z"/>
	<path style="fill:#116FFF;" d="M155.977,487.929c-2.21,0-4-1.788-4-3.999V355.948c0-2.211,1.789-3.999,4-3.999s4,1.788,4,3.999
		v127.981C159.977,486.141,158.188,487.929,155.977,487.929z"/>
	<path style="fill:#116FFF;" d="M179.973,487.929c-2.211,0-4-1.788-4-3.999V323.953c0-2.211,1.789-4,4-4c2.21,0,3.999,1.789,3.999,4
		V483.93C183.972,486.141,182.184,487.929,179.973,487.929z"/>
	<path style="fill:#116FFF;" d="M179.973,327.952h-71.99c-1.062,0-2.078-0.422-2.828-1.171l-15.997-15.998
		c-0.75-0.75-1.172-1.766-1.172-2.828v-47.992c0-2.211,1.789-4,4-4h15.998c2.21,0,4,1.789,4,4v11.998h15.998v-11.998
		c0-2.211,1.789-4,4-4h23.997c2.21,0,4,1.789,4,4v11.998h15.998v-11.998c0-2.211,1.789-4,4-4h15.998c2.21,0,4,1.789,4,4v47.992
		c0,1.062-0.422,2.078-1.172,2.828l-15.998,15.998C182.051,327.53,181.036,327.952,179.973,327.952z M109.64,319.953h68.678
		l13.654-13.654v-42.337h-7.999v11.998c0,2.211-1.789,3.999-3.999,3.999h-23.997c-2.21,0-4-1.788-4-3.999v-11.998h-15.998v11.998
		c0,2.211-1.789,3.999-4,3.999h-23.997c-2.21,0-4-1.788-4-3.999v-11.998h-7.999v42.337L109.64,319.953z"/>
	<path style="fill:#116FFF;" d="M331.951,183.974H179.973c-1.062,0-2.078-0.422-2.828-1.172l-15.997-15.998
		c-0.75-0.75-1.172-1.765-1.172-2.827V99.986c0-2.21,1.789-3.999,3.999-3.999h31.996c2.21,0,4,1.789,4,3.999v11.999h15.998V99.986
		c0-2.21,1.789-3.999,4-3.999h71.989c2.211,0,4,1.789,4,3.999v11.999h15.998V99.986c0-2.21,1.789-3.999,3.998-3.999h31.996
		c2.211,0,4,1.789,4,3.999v63.991c0,1.062-0.422,2.078-1.172,2.827l-15.998,15.998C334.029,183.552,333.013,183.974,331.951,183.974
		z M181.63,175.975h148.665l13.654-13.654v-58.335h-23.996v11.998c0,2.21-1.789,3.999-4,3.999h-23.996
		c-2.211,0-3.998-1.789-3.998-3.999v-11.998h-63.992v11.998c0,2.21-1.789,3.999-3.999,3.999h-23.997c-2.21,0-4-1.789-4-3.999
		v-11.998h-23.996v58.335L181.63,175.975z"/>
	<path style="fill:#116FFF;" d="M355.947,487.929c-2.209,0-3.998-1.788-3.998-3.999V347.95c0-2.211,1.789-3.999,3.998-3.999
		c2.211,0,4,1.788,4,3.999v135.98C359.947,486.141,358.158,487.929,355.947,487.929z"/>
	<path style="fill:#116FFF;" d="M331.951,487.929c-2.211,0-3.998-1.788-3.998-3.999V323.953c0-2.211,1.787-4,3.998-4s4,1.789,4,4
		V483.93C335.951,486.141,334.161,487.929,331.951,487.929z"/>
	<path style="fill:#116FFF;" d="M379.944,487.929c-2.211,0-4-1.788-4-3.999V347.95c0-2.211,1.789-3.999,4-3.999
		c2.209,0,3.998,1.788,3.998,3.999v135.98C383.943,486.141,382.154,487.929,379.944,487.929z"/>
	<path style="fill:#116FFF;" d="M403.941,487.929c-2.211,0-4-1.788-4-3.999V323.953c0-2.211,1.789-4,4-4s4,1.789,4,4V483.93
		C407.941,486.141,406.151,487.929,403.941,487.929z"/>
	<path style="fill:#116FFF;" d="M307.954,303.956H203.969c-2.21,0-3.999-1.789-3.999-3.999c0-2.211,1.789-4,3.999-4h103.985
		c2.211,0,4,1.789,4,4C311.954,302.167,310.165,303.956,307.954,303.956z"/>
	<path style="fill:#116FFF;" d="M299.956,487.929c-2.211,0-4-1.788-4-3.999v-83.988c0-22.051-17.943-39.994-39.994-39.994
		c-22.052,0-39.995,17.943-39.995,39.994v83.988c0,2.211-1.789,3.999-4,3.999c-2.21,0-3.999-1.788-3.999-3.999v-83.988
		c0-26.465,21.528-47.992,47.993-47.992c26.464,0,47.992,21.527,47.992,47.992v83.988
		C303.954,486.141,302.165,487.929,299.956,487.929z"/>
	<path style="fill:#116FFF;" d="M255.962,487.929c-2.211,0-4-1.788-4-3.999V371.946c0-2.211,1.789-4,4-4c2.21,0,4,1.789,4,4v111.983
		C259.962,486.141,258.173,487.929,255.962,487.929z"/>
	<path style="fill:#116FFF;" d="M283.958,407.941h-55.992c-2.211,0-4-1.788-4-3.999s1.789-4,4-4h55.992c2.211,0,4,1.789,4,4
		S286.169,407.941,283.958,407.941z"/>
	<path style="fill:#116FFF;" d="M283.958,447.935h-55.992c-2.211,0-4-1.788-4-3.999s1.789-4,4-4h55.992c2.211,0,4,1.789,4,4
		S286.169,447.935,283.958,447.935z"/>
	<path style="fill:#116FFF;" d="M163.975,331.951c-2.21,0-3.999-1.788-3.999-3.999v-3.999c0-2.211,1.789-4,3.999-4
		c2.211,0,4,1.789,4,4v3.999C167.975,330.163,166.186,331.951,163.975,331.951z"/>
	<path style="fill:#116FFF;" d="M143.979,331.951c-2.21,0-3.999-1.788-3.999-3.999v-3.999c0-2.211,1.789-4,3.999-4
		c2.211,0,4,1.789,4,4v3.999C147.979,330.163,146.189,331.951,143.979,331.951z"/>
	<path style="fill:#116FFF;" d="M123.981,331.951c-2.21,0-3.999-1.788-3.999-3.999v-3.999c0-2.211,1.789-4,3.999-4
		c2.211,0,4,1.789,4,4v3.999C127.981,330.163,126.193,331.951,123.981,331.951z"/>
	<path style="fill:#116FFF;" d="M403.941,327.952h-71.99c-1.062,0-2.078-0.422-2.828-1.171l-15.996-15.998
		c-0.75-0.75-1.172-1.766-1.172-2.828v-47.992c0-2.211,1.789-4,3.998-4h15.998c2.211,0,4,1.789,4,4v11.998h15.998v-11.998
		c0-2.211,1.789-4,3.998-4h23.998c2.209,0,3.998,1.789,3.998,4v11.998h15.998v-11.998c0-2.211,1.789-4,4-4h15.998
		c2.211,0,3.998,1.789,3.998,4v47.992c0,1.062-0.422,2.078-1.172,2.828l-15.996,15.998
		C406.02,327.53,405.003,327.952,403.941,327.952z M333.607,319.953h68.678l13.654-13.654v-42.337h-7.998v11.998
		c0,2.211-1.789,3.999-4,3.999h-23.996c-2.211,0-4-1.788-4-3.999v-11.998h-15.998v11.998c0,2.211-1.789,3.999-4,3.999h-23.996
		c-2.211,0-3.998-1.788-3.998-3.999v-11.998h-8v42.337L333.607,319.953z"/>
	<path style="fill:#116FFF;" d="M387.943,331.951c-2.211,0-4-1.788-4-3.999v-3.999c0-2.211,1.789-4,4-4s4,1.789,4,4v3.999
		C391.943,330.163,390.154,331.951,387.943,331.951z"/>
	<path style="fill:#116FFF;" d="M367.947,331.951c-2.211,0-4-1.788-4-3.999v-3.999c0-2.211,1.789-4,4-4c2.209,0,3.998,1.789,3.998,4
		v3.999C371.944,330.163,370.155,331.951,367.947,331.951z"/>
	<path style="fill:#116FFF;" d="M347.948,331.951c-2.211,0-4-1.788-4-3.999v-3.999c0-2.211,1.789-4,4-4s4,1.789,4,4v3.999
		C351.948,330.163,350.159,331.951,347.948,331.951z"/>
	<path style="fill:#116FFF;" d="M507.926,487.929c-2.211,0-4-1.788-4-3.999V343.95h-3.998c-2.211,0-4-1.789-4-3.999v-11.999H479.93
		v11.999c0,2.21-1.789,3.999-4,3.999h-23.996c-2.211,0-3.998-1.789-3.998-3.999v-11.999h-15.998v11.999c0,2.21-1.789,3.999-4,3.999
		H411.94c-2.211,0-3.998-1.789-3.998-3.999c0-2.211,1.787-4,3.998-4h11.998v-11.998c0-2.211,1.789-4,4-4h23.996c2.211,0,4,1.789,4,4
		v11.998h15.998v-11.998c0-2.211,1.789-4,3.998-4h23.998c2.211,0,3.998,1.789,3.998,4v11.998h4c2.211,0,4,1.789,4,4V483.93
		C511.926,486.141,510.137,487.929,507.926,487.929z"/>
	<path style="fill:#116FFF;" d="M4,487.929c-2.21,0-3.999-1.788-3.999-3.999V339.951c0-2.211,1.789-4,3.999-4h4v-11.998
		c0-2.211,1.789-4,4-4h23.997c2.21,0,4,1.789,4,4v11.998h15.998v-11.998c0-2.211,1.789-4,4-4h23.996c2.211,0,4,1.789,4,4v11.998
		H99.99c2.21,0,3.999,1.789,3.999,4c0,2.21-1.789,3.999-3.999,3.999H83.988c-2.21,0-3.999-1.789-3.999-3.999v-11.999H63.991v11.999
		c0,2.21-1.789,3.999-3.999,3.999H35.995c-2.21,0-4-1.789-4-3.999v-11.999H15.997v11.999c0,2.21-1.788,3.999-3.999,3.999h-4v139.979
		C7.998,486.141,6.21,487.929,4,487.929z"/>
	<path style="fill:#116FFF;" d="M483.93,319.953c-2.211,0-4-1.788-4-3.999V203.971c0-2.211,1.789-4,4-4s4,1.789,4,4v111.983
		C487.93,318.165,486.141,319.953,483.93,319.953z"/>
	<path style="fill:#116FFF;" d="M435.935,319.953c-2.209,0-3.998-1.788-3.998-3.999V203.971c0-2.211,1.789-4,3.998-4
		c2.211,0,4,1.789,4,4v111.983C439.935,318.165,438.146,319.953,435.935,319.953z"/>
	<path style="fill:#116FFF;" d="M467.931,271.961h-15.998c-2.211,0-3.998-1.789-3.998-4v-15.998c0-6.616,5.381-11.998,11.998-11.998
		c6.615,0,11.998,5.382,11.998,11.998v15.998C471.931,270.172,470.142,271.961,467.931,271.961z M455.934,263.962h7.998v-11.999
		c0-2.203-1.795-4-3.998-4s-4,1.797-4,4V263.962z"/>
	<path style="fill:#116FFF;" d="M427.938,199.971c-0.68,0-1.359-0.171-1.984-0.523c-1.922-1.102-2.586-3.546-1.492-5.46
		l31.996-55.991c1.102-1.93,3.555-2.57,5.461-1.492c1.92,1.102,2.584,3.546,1.49,5.46l-31.994,55.992
		C430.672,199.245,429.319,199.971,427.938,199.971z"/>
	<path style="fill:#116FFF;" d="M491.927,199.971c-1.383,0-2.734-0.726-3.475-2.015l-31.996-55.992
		c-1.094-1.914-0.43-4.358,1.492-5.46c1.898-1.078,4.352-0.438,5.459,1.492l31.996,55.991c1.094,1.914,0.43,4.359-1.492,5.46
		C493.286,199.799,492.607,199.971,491.927,199.971z"/>
	<path style="fill:#116FFF;" d="M491.927,199.971h-63.99c-2.211,0-4-1.788-4-3.999s1.789-4,4-4h63.99c2.211,0,4,1.789,4,4
		S494.138,199.971,491.927,199.971z"/>
	<path style="fill:#116FFF;" d="M459.934,143.98c-2.211,0-4-1.789-4-4v-15.997c0-2.211,1.789-4,4-4s3.998,1.789,3.998,4v15.997
		C463.931,142.191,462.145,143.98,459.934,143.98z"/>
	<path style="fill:#116FFF;" d="M75.989,319.953c-2.21,0-4-1.788-4-3.999V203.971c0-2.211,1.789-4,4-4s4,1.789,4,4v111.983
		C79.989,318.165,78.2,319.953,75.989,319.953z"/>
	<path style="fill:#116FFF;" d="M27.996,319.953c-2.21,0-4-1.788-4-3.999V203.971c0-2.211,1.789-4,4-4s4,1.789,4,4v111.983
		C31.996,318.165,30.206,319.953,27.996,319.953z"/>
	<path style="fill:#116FFF;" d="M59.992,271.961H43.993c-2.21,0-3.999-1.789-3.999-4v-15.998c0-6.616,5.382-11.998,11.998-11.998
		s11.998,5.382,11.998,11.998v15.998C63.991,270.172,62.201,271.961,59.992,271.961z M47.993,263.962h7.999v-11.999
		c0-2.203-1.796-4-4-4s-4,1.797-4,4L47.993,263.962L47.993,263.962z"/>
	<path style="fill:#116FFF;" d="M19.997,199.971c-0.68,0-1.359-0.171-1.984-0.523c-1.922-1.102-2.585-3.546-1.492-5.46
		l31.996-55.991c1.101-1.93,3.554-2.57,5.46-1.492c1.921,1.102,2.585,3.546,1.492,5.46l-31.997,55.991
		C22.73,199.245,21.379,199.971,19.997,199.971z"/>
	<path style="fill:#116FFF;" d="M83.988,199.971c-1.382,0-2.734-0.726-3.476-2.015l-31.996-55.992
		c-1.093-1.914-0.43-4.358,1.492-5.46c1.891-1.078,4.352-0.438,5.46,1.492l31.996,55.991c1.093,1.914,0.429,4.359-1.492,5.46
		C85.347,199.799,84.668,199.971,83.988,199.971z"/>
	<path style="fill:#116FFF;" d="M83.988,199.971h-63.99c-2.211,0-4-1.788-4-3.999s1.789-4,4-4h63.99c2.211,0,4,1.789,4,4
		S86.199,199.971,83.988,199.971z"/>
	<path style="fill:#116FFF;" d="M51.993,143.98c-2.211,0-4-1.789-4-4v-15.997c0-2.211,1.789-4,4-4s4,1.789,4,4v15.997
		C55.992,142.191,54.204,143.98,51.993,143.98z"/>
	<path style="fill:#116FFF;" d="M179.973,255.963c-2.211,0-4-1.789-4-4v-63.99c0-2.21,1.789-3.999,4-3.999
		c2.21,0,3.999,1.789,3.999,3.999v63.99C183.972,254.174,182.184,255.963,179.973,255.963z"/>
	<path style="fill:#116FFF;" d="M331.951,255.963c-2.211,0-3.998-1.789-3.998-4v-63.99c0-2.21,1.787-3.999,3.998-3.999
		s4,1.789,4,3.999v63.99C335.951,254.174,334.161,255.963,331.951,255.963z"/>
	<path style="fill:#116FFF;" d="M235.965,295.957c-2.21,0-4-1.789-4-4V187.973c0-2.21,1.789-3.999,4-3.999s4,1.789,4,3.999v103.984
		C239.964,294.168,238.175,295.957,235.965,295.957z"/>
	<path style="fill:#116FFF;" d="M275.958,295.957c-2.209,0-3.998-1.789-3.998-4V187.973c0-2.21,1.789-3.999,3.998-3.999
		c2.211,0,4,1.789,4,3.999v103.984C279.958,294.168,278.169,295.957,275.958,295.957z"/>
	<path style="fill:#116FFF;" d="M255.962,95.986c-2.211,0-4-1.789-4-4V4c0-2.211,1.789-4,4-4c2.21,0,4,1.789,4,4v87.987
		C259.962,94.197,258.173,95.986,255.962,95.986z"/>
	<path style="fill:#116FFF;" d="M307.954,15.998h-39.994c-2.211,0-4-1.789-4-4s1.789-4,4-4h39.994c2.211,0,4,1.789,4,4
		S310.165,15.998,307.954,15.998z"/>
	<path style="fill:#116FFF;" d="M307.954,31.996c-2.211,0-4-1.789-4-4V11.999c0-2.21,1.789-4,4-4s4,1.789,4,4v15.998
		C311.954,30.207,310.165,31.996,307.954,31.996z"/>
	<path style="fill:#116FFF;" d="M307.954,31.996h-39.994c-2.211,0-4-1.789-4-4c0-2.21,1.789-3.999,4-3.999h39.994
		c2.211,0,4,1.789,4,3.999C311.954,30.207,310.165,31.996,307.954,31.996z"/>
	<path style="fill:#116FFF;" d="M371.944,31.996h-47.992c-2.211,0-4-1.789-4-4c0-2.21,1.789-3.999,4-3.999h47.992
		c2.211,0,4,1.789,4,3.999C375.944,30.207,374.155,31.996,371.944,31.996z"/>
	<path style="fill:#116FFF;" d="M371.944,47.993c-1.023,0-2.047-0.391-2.828-1.172l-7.998-7.999c-1.562-1.562-1.562-4.093,0-5.656
		l7.998-7.999c1.562-1.562,4.094-1.562,5.656,0s1.562,4.093,0,5.656l-5.172,5.171l5.172,5.171c1.562,1.562,1.562,4.093,0,5.655
		C373.991,47.603,372.969,47.993,371.944,47.993z"/>
	<path style="fill:#116FFF;" d="M371.944,47.993h-79.988c-2.211,0-3.998-1.789-3.998-3.999c0-2.211,1.787-4,3.998-4h79.988
		c2.211,0,4,1.789,4,4C375.944,46.204,374.155,47.993,371.944,47.993z"/>
	<path style="fill:#116FFF;" d="M507.926,511.926H4c-2.21,0-3.999-1.789-3.999-4v-15.997c0-2.211,1.789-4,3.999-4h503.926
		c2.211,0,4,1.789,4,4v15.997C511.926,510.137,510.137,511.926,507.926,511.926z M7.998,503.927h495.927v-7.999H7.998V503.927z"/>
	<path style="fill:#116FFF;" d="M291.956,47.993c-1.023,0-2.047-0.391-2.828-1.172c-1.561-1.562-1.561-4.093,0-5.655l8-7.999
		c1.562-1.562,4.094-1.562,5.654,0c1.562,1.562,1.562,4.094,0,5.656l-7.998,7.999C294.003,47.603,292.98,47.993,291.956,47.993z"/>
</g>
<g>
</g>
<g>
</g>
<g>
</g>
<g>
</g>
<g>
</g>
<g>
</g>
<g>
</g>
<g>
</g>
<g>
</g>
<g>
</g>
<g>
</g>
<g>
</g>
<g>
</g>
<g>
</g>
<g>
</g>
</svg>
