<?xml version="1.0" encoding="iso-8859-1"?>
<!-- Generator: Adobe Illustrator 19.0.0, SVG Export Plug-In . SVG Version: 6.00 Build 0)  -->
<svg version="1.1" id="Capa_1" xmlns="http://www.w3.org/2000/svg" xmlns:xlink="http://www.w3.org/1999/xlink" x="0px" y="0px"
	 viewBox="0 0 511.389 511.389" style="enable-background:new 0 0 511.389 511.389;" xml:space="preserve">
<g>
	<g>
		<g>
			<path d="M127.381,136.819c8.143,0.037,15.338-5.29,17.679-13.089c2.341-7.799-0.732-16.209-7.549-20.661
				s-15.753-3.886-21.953,1.392c-6.201,5.278-8.186,14.008-4.879,21.449l0.099,0.182
				C113.733,132.611,120.223,136.804,127.381,136.819z"/>
			<path d="M84.384,181.89L84.384,181.89c-1.728-5.725-2.643-11.663-2.717-17.642c0.012-12.548,3.803-24.802,10.879-35.165
				c-1.1-3.411-1.685-6.966-1.736-10.55c-0.054-16.88,11.488-31.59,27.897-35.553c16.409-3.963,33.392,3.859,41.048,18.904
				c7.068,1.569,13.817,4.33,19.958,8.164c-7.835-27.462-32.925-46.404-61.483-46.416c-28.558-0.012-53.664,18.909-61.522,46.364
				C48.849,137.453,60.143,166.791,84.384,181.89z"/>
			<polygon points="358.67,181.89 358.669,181.889 358.669,181.89 			"/>
			<path d="M358.669,181.889c-1.728-5.724-2.643-11.662-2.717-17.641c0.012-12.548,3.803-24.802,10.879-35.165
				c-1.1-3.411-1.685-6.966-1.736-10.55c-0.055-16.881,11.488-31.592,27.898-35.554c16.41-3.963,33.393,3.859,41.049,18.905
				c7.067,1.568,13.816,4.328,19.956,8.162c-7.836-27.462-32.926-46.403-61.484-46.414c-28.558-0.011-53.664,18.909-61.521,46.365
				C323.135,137.452,334.43,166.79,358.669,181.889z"/>
			<path d="M401.666,136.819c8.143,0.037,15.338-5.29,17.679-13.089c2.341-7.799-0.732-16.209-7.549-20.661
				c-6.817-4.453-15.753-3.886-21.953,1.392c-6.201,5.278-8.186,14.008-4.879,21.449l0.099,0.182
				C388.019,132.611,394.509,136.804,401.666,136.819z"/>
			<path d="M163.564,122.376c-1.302,13.484-10.022,25.114-22.601,30.143c-12.579,5.029-26.913,2.615-37.151-6.257
				c-2.517,5.664-3.832,11.788-3.859,17.986c0.049,9.582,3.118,18.904,8.77,26.641c16.94,2.698,34.25-1.583,47.979-11.866
				s22.707-25.689,24.883-42.704C176.868,130.208,170.664,125.407,163.564,122.376z"/>
			<path d="M497.765,273.94c-9.658-16.535-16.209-34.697-19.33-53.589c-0.349-3.173-0.846-6.189-1.307-9.244
				c-0.195,0.198-0.362,0.418-0.559,0.615c-2.31,2.309-5.676,3.211-8.83,2.366s-5.619-3.31-6.464-6.464
				c-0.845-3.155,0.057-6.521,2.366-8.83c23.646-23.676,33.978-57.556,27.567-90.397c-6.411-32.841-28.726-60.349-59.54-73.393
				c-25.043-10.482-53.243-10.482-78.286,0c-24.112,10.225-43.307,29.42-53.531,53.531c-1.273,3.008-4.054,5.109-7.295,5.51
				c-3.241,0.402-6.451-0.956-8.42-3.563c-1.969-2.606-2.397-6.065-1.125-9.073c3.764-8.794,8.581-17.1,14.345-24.734
				c-13.616-1.807-27.36-2.463-41.086-1.962c-0.219,0.009-0.996,0.009-1.223,0c-13.899-0.515-27.817,0.158-41.602,2.013
				c5.747,7.62,10.551,15.908,14.307,24.683c1.273,3.008,0.844,6.467-1.125,9.073c-1.969,2.606-5.178,3.964-8.42,3.563
				c-3.241-0.402-6.022-2.502-7.295-5.51c-10.225-24.112-29.42-43.307-53.531-53.531c-25.043-10.482-53.243-10.482-78.286,0
				c-30.85,13.008-53.201,40.519-59.615,73.379c-6.414,32.86,3.949,66.757,27.643,90.412c2.309,2.309,3.211,5.676,2.366,8.83
				s-3.31,5.619-6.464,6.464s-6.521-0.057-8.83-2.366l-0.07-0.077c-0.438,2.882-0.915,5.743-1.247,8.675
				c-3.067,18.903-9.589,37.08-19.241,53.621c-18.285,35.67-18.174,77.985,0.299,113.558c17.79,33.201,53.763,57.75,106.911,72.964
				c23.111,6.223,46.602,10.934,70.325,14.102c7.705,1.125,15.326,2.656,22.696,4.138c13.618,3.232,27.525,5.09,41.514,5.545
				c14.172-0.419,28.266-2.277,42.063-5.545c7.37-1.482,14.991-3.013,22.723-4.143c23.716-3.169,47.2-7.879,70.304-14.098
				c53.143-15.214,89.107-39.763,106.902-72.964C515.921,351.951,516.068,309.614,497.765,273.94z M392.524,45.391
				c45.445,0,82.286,36.841,82.286,82.286s-36.841,82.286-82.286,82.286s-82.286-36.841-82.286-82.286
				C310.289,82.253,347.1,45.442,392.524,45.391z M202.832,197.03c13.719-14.493,32.603-22.988,52.549-23.639
				c19.946,0.65,38.83,9.145,52.549,23.638c16.531,18.603,50.893,31.674,51.237,31.804c3.058,1.148,5.272,3.84,5.807,7.062
				c0.535,3.222-0.689,6.486-3.212,8.56s-5.961,2.646-9.019,1.498c-1.58-0.594-38.915-14.763-58.482-36.773
				c-10.216-10.632-24.147-16.904-38.879-17.504c-14.713,0.683-28.615,6.942-38.879,17.504
				c-19.567,22.009-56.902,36.178-58.482,36.773c-4.728,1.774-9.998-0.621-11.772-5.348c-1.774-4.728,0.621-9.998,5.348-11.772
				C151.939,228.704,186.3,215.632,202.832,197.03z M300.131,241.48c-2.26,4.516-7.751,6.346-12.268,4.089l-18.286-9.143
				c-2.93-1.456-4.859-4.367-5.057-7.633c-0.199-3.266,1.363-6.389,4.095-8.19c2.732-1.801,6.218-2.004,9.141-0.534l18.286,9.143
				c2.169,1.084,3.819,2.986,4.586,5.287C301.394,236.8,301.216,239.311,300.131,241.48z M241.184,236.427l-18.286,9.143
				c-2.923,1.47-6.409,1.267-9.141-0.534s-4.294-4.924-4.095-8.19c0.199-3.266,2.127-6.177,5.057-7.633l18.286-9.143
				c4.515-2.244,9.994-0.41,12.248,4.099S245.688,234.161,241.184,236.427z M35.952,127.677c0-45.445,36.841-82.286,82.286-82.286
				c45.445,0,82.286,36.841,82.286,82.286s-36.841,82.286-82.286,82.286C72.815,209.91,36.005,173.1,35.952,127.677z
				 M383.479,401.962c-10.795-0.44-21.579,1.097-31.821,4.536c-8.022,3.852-15.462,8.813-22.103,14.737
				c-2.402,1.933-4.786,3.853-7.187,5.679c-19.29,14.392-42.938,21.721-66.987,20.763c-24.05,0.957-47.699-6.372-66.991-20.763
				c-2.397-1.826-4.782-3.745-7.183-5.679c-6.641-5.923-14.081-10.884-22.103-14.737c-10.242-3.438-21.027-4.976-31.821-4.536
				c-5.049-0.027-9.121-4.143-9.094-9.192s4.143-9.121,9.192-9.094h0.098c13.118-0.484,26.209,1.522,38.58,5.911
				c9.666,4.48,18.629,10.342,26.607,17.402c2.272,1.826,4.527,3.643,6.799,5.371c16.1,11.989,35.866,18.01,55.915,17.031
				c20.048,0.979,39.813-5.042,55.911-17.031c2.277-1.728,4.531-3.545,6.804-5.371c7.978-7.06,16.941-12.922,26.607-17.402
				c12.371-4.389,25.462-6.395,38.58-5.911h0.098c5.049-0.027,9.165,4.044,9.192,9.094S388.528,401.935,383.479,401.962z
				 M479.354,317.15c-6.259,8.727-16.635,13.534-27.339,12.665c-2.169-0.006-4.336-0.129-6.491-0.371
				c-2.028-0.224-4.01-0.546-5.981-0.889c-0.424,0.121-0.858,0.209-1.296,0.264c-0.545,0-54.96,0.464-90.353,30.353
				c-33.621,28.393-64.75,42.79-92.514,42.79s-58.893-14.397-92.513-42.79c-35.531-30.004-89.799-30.353-90.344-30.353
				c-0.442-0.054-0.879-0.142-1.307-0.264c-1.97,0.343-3.951,0.665-5.979,0.889c-2.155,0.241-4.323,0.365-6.491,0.371
				c-10.708,0.869-21.087-3.94-27.347-12.67c-8.924-13.933-3.21-33.263,3.156-47.022c2.123-4.579,7.554-6.572,12.135-4.453
				c4.581,2.119,6.578,7.549,4.463,12.131c-6.013,12.991-7.679,24.29-4.353,29.487c3.223,5.027,13.388,4.326,16.429,3.978
				c16.298-2.714,32.021-8.156,46.509-16.098c4.116-1.951,8.246-3.911,12.437-5.79c42.118-17.675,87.554-26.051,133.205-24.558
				c45.65-1.494,91.085,6.883,133.201,24.558c4.192,1.879,8.326,3.839,12.442,5.79c14.488,7.941,30.212,13.383,46.509,16.098
				c3.063,0.335,13.214,1.045,16.419-3.978c3.339-5.196,1.67-16.491-4.339-29.487c-1.384-2.965-1.077-6.444,0.805-9.121
				c1.882-2.677,5.051-4.144,8.31-3.846c3.259,0.298,6.11,2.315,7.475,5.289C482.568,283.886,488.283,303.217,479.354,317.15z"/>
			<path d="M437.85,122.375c-1.301,13.485-10.021,25.115-22.6,30.144c-12.579,5.029-26.914,2.615-37.152-6.256
				c-2.517,5.664-3.832,11.788-3.859,17.986c0.049,9.582,3.117,18.904,8.77,26.641c16.939,2.698,34.248-1.583,47.978-11.865
				s22.707-25.687,24.885-42.701C451.155,130.209,444.95,125.407,437.85,122.375z"/>
			<path d="M381.104,306.065c-39.772-16.596-82.653-24.428-125.723-22.96c-43.072-1.467-85.954,6.364-125.728,22.96
				c-4.067,1.826-8.08,3.728-12.076,5.625c-2.475,1.174-4.969,2.345-7.48,3.512c23.605,4.711,45.741,14.995,64.565,29.997
				c37.661,31.803,64.683,38.478,80.719,38.478s43.058-6.674,80.719-38.478c18.823-15.002,40.96-25.286,64.565-29.997
				c-2.509-1.165-5.002-2.335-7.48-3.512C389.189,309.793,385.175,307.891,381.104,306.065z"/>
		</g>
	</g>
</g>
<g>
</g>
<g>
</g>
<g>
</g>
<g>
</g>
<g>
</g>
<g>
</g>
<g>
</g>
<g>
</g>
<g>
</g>
<g>
</g>
<g>
</g>
<g>
</g>
<g>
</g>
<g>
</g>
<g>
</g>
</svg>
