<?xml version="1.0" encoding="iso-8859-1"?>
<!-- Generator: Adobe Illustrator 19.0.0, SVG Export Plug-In . SVG Version: 6.00 Build 0)  -->
<svg version="1.1" id="Capa_1" xmlns="http://www.w3.org/2000/svg" xmlns:xlink="http://www.w3.org/1999/xlink" x="0px" y="0px"
	 viewBox="0 0 511.439 511.439" style="enable-background:new 0 0 511.439 511.439;" xml:space="preserve">
<g>
	<path style="fill:#46B29D;" d="M496.85,387.162c-21.716,40.519-66.03,62.588-108.579,74.77
		c-22.685,6.117-45.744,10.746-69.032,13.859c-21.186,3.09-41.49,9.445-63.294,9.445h-0.53c-21.804,0-42.108-6.356-63.294-9.445
		c-23.288-3.113-46.347-7.742-69.032-13.859c-42.549-12.182-86.863-34.251-108.579-74.77
		c-19.223-36.901-19.354-80.833-0.353-117.848c8.79-15.038,14.772-31.55,17.655-48.728c1.021-9.153,2.613-18.234,4.767-27.189
		c-4.47-6.242-8.23-12.963-11.211-20.039c-11.064-26.37-11.064-56.08,0-82.45C36.096,65.469,56.338,45.227,81.777,34.5
		c26.37-11.064,56.08-11.064,82.45,0c12.581,5.35,24.025,13.05,33.721,22.687l0.265,0.265c18.82-3.782,38.021-5.323,57.203-4.59
		h0.53c19.031-0.715,38.081,0.796,56.761,4.502l0.177-0.177c9.696-9.637,21.141-17.337,33.721-22.687
		c26.37-11.064,56.08-11.064,82.45,0c25.439,10.727,45.681,30.969,56.408,56.408c11.064,26.37,11.064,56.08,0,82.45
		c-2.886,6.84-6.497,13.35-10.77,19.421c2.233,9.151,3.855,18.441,4.855,27.807c2.914,17.183,8.926,33.694,17.743,48.728
		C516.31,306.333,516.145,350.287,496.85,387.162z"/>
	<g>
		<path style="fill:#14A085;" d="M233.705,114.483c-3.559-0.001-6.77-2.136-8.147-5.418c-4.813-11.448-11.791-21.858-20.552-30.66
			c-3.43-3.464-3.403-9.052,0.06-12.483c3.464-3.43,9.052-3.403,12.483,0.06c10.356,10.407,18.603,22.718,24.289,36.254
			c1.138,2.725,0.84,5.837-0.794,8.297C239.411,112.993,236.657,114.475,233.705,114.483z"/>
		<path style="fill:#14A085;" d="M61.209,225.263c-2.374,0.004-4.648-0.952-6.306-2.651c-4.506-4.584-8.642-9.518-12.371-14.754
			c-1.851-2.572-2.182-5.94-0.865-8.823c1.316-2.883,4.077-4.839,7.233-5.125c3.156-0.286,6.224,1.142,8.037,3.741
			c3.189,4.474,6.726,8.69,10.578,12.608c2.486,2.539,3.208,6.321,1.831,9.597C67.97,223.131,64.763,225.262,61.209,225.263z"/>
	</g>
	<circle style="fill:#FFFFFF;" cx="123.002" cy="132.133" r="70.621"/>
	<g>
		<path style="fill:#14A085;" d="M449.623,225.883c-3.555,0-6.762-2.133-8.139-5.41c-1.376-3.278-0.652-7.061,1.837-9.599
			c4.016-4.056,7.679-8.446,10.948-13.125c2.764-4.014,8.258-5.027,12.271-2.263c4.014,2.764,5.027,8.258,2.263,12.271
			c-3.84,5.52-8.149,10.699-12.879,15.478C454.267,224.932,451.994,225.887,449.623,225.883z"/>
		<path style="fill:#14A085;" d="M281.894,112.715c-2.964-0.004-5.729-1.494-7.362-3.968s-1.916-5.602-0.754-8.329
			c5.769-13.503,14.021-25.804,24.328-36.263c2.208-2.259,5.455-3.167,8.514-2.38c3.059,0.787,5.465,3.149,6.309,6.193
			c0.844,3.044-0.003,6.307-2.22,8.557c-8.766,8.888-15.784,19.344-20.69,30.823C288.631,110.604,285.433,112.716,281.894,112.715z"
			/>
	</g>
	<g>
		<path style="fill:#4482C3;" d="M458.186,137.783c-3.005,36.649-33.584,64.888-70.356,64.971c-4.772-0.019-9.53-0.492-14.212-1.412
			c-7.952-9.503-12.297-21.507-12.27-33.898c-0.035-11.908,4.015-23.469,11.476-32.75c5.307,11.173,17.651,17.174,29.716,14.443
			c12.064-2.73,20.623-13.461,20.601-25.831c0.034-2.829-0.444-5.64-1.412-8.298C436.562,117.08,449.817,125.36,458.186,137.783z"/>
		<path style="fill:#4482C3;" d="M193.623,137.783c-3.005,36.649-33.584,64.888-70.356,64.971c-4.772-0.019-9.53-0.492-14.212-1.412
			c-7.952-9.503-12.297-21.507-12.27-33.898c-0.035-11.908,4.015-23.469,11.476-32.75c5.307,11.173,17.651,17.174,29.716,14.443
			c12.064-2.73,20.623-13.461,20.601-25.831c0.034-2.829-0.444-5.64-1.412-8.298C171.999,117.08,185.254,125.36,193.623,137.783z"/>
	</g>
	<path style="fill:#FFFFFF;" d="M458.45,132.133c0,1.942-0.088,3.796-0.265,5.65c-8.369-12.423-21.623-20.703-36.458-22.775
		c0.968,2.658,1.447,5.469,1.412,8.298c0.022,12.37-8.537,23.1-20.601,25.831c-12.064,2.73-24.409-3.27-29.716-14.443
		c-7.461,9.282-11.511,20.842-11.476,32.75c-0.027,12.391,4.318,24.395,12.27,33.898c-36.402-7.469-60.792-41.867-55.796-78.69
		c4.996-36.823,37.669-63.479,74.746-60.979S458.443,94.973,458.45,132.133z"/>
	<g>
		<path style="fill:#14A085;" d="M352.515,246.896c-1.057-0.003-2.105-0.194-3.095-0.565c-1.526-0.573-37.573-14.254-56.466-35.505
			c-9.864-10.265-23.314-16.321-37.539-16.9c-14.206,0.659-27.628,6.702-37.539,16.901c-18.892,21.25-54.94,34.931-56.466,35.505
			c-4.565,1.713-9.654-0.599-11.366-5.164c-1.713-4.565,0.599-9.654,5.164-11.366c0.332-0.125,33.509-12.746,49.47-30.707
			c13.246-13.994,31.479-22.195,50.737-22.824c19.258,0.628,37.491,8.83,50.737,22.823c15.961,17.961,49.138,30.582,49.47,30.707
			c3.994,1.502,6.343,5.646,5.58,9.844C360.439,243.844,356.783,246.896,352.515,246.896L352.515,246.896z"/>
		<path style="fill:#14A085;" d="M220.114,246.892c-4.096,0.005-7.658-2.809-8.601-6.795c-0.943-3.986,0.98-8.098,4.644-9.929
			l17.655-8.828c4.359-2.167,9.649-0.396,11.826,3.958c2.177,4.354,0.419,9.648-3.929,11.835l-17.655,8.828
			C222.831,246.573,221.482,246.892,220.114,246.892z"/>
		<path style="fill:#14A085;" d="M290.717,246.892c-1.368,0-2.717-0.319-3.94-0.931l-17.655-8.828
			c-2.829-1.406-4.691-4.217-4.883-7.37c-0.192-3.153,1.316-6.169,3.954-7.907c2.638-1.739,6.003-1.935,8.826-0.516l17.655,8.828
			c3.664,1.831,5.588,5.943,4.644,9.929C298.376,244.083,294.814,246.897,290.717,246.892z"/>
	</g>
	<g>
		<circle style="fill:#B0D3F0;" cx="131.83" cy="123.306" r="26.483"/>
		<path style="fill:#B0D3F0;" d="M423.14,123.306c0.022,12.37-8.537,23.1-20.601,25.831c-12.064,2.73-24.409-3.27-29.716-14.443
			c-1.776-3.531-2.684-7.435-2.648-11.388c-0.022-12.996,9.405-24.081,22.236-26.146c12.831-2.065,25.26,5.501,29.317,17.848
			C422.696,117.666,423.174,120.477,423.14,123.306z"/>
	</g>
	<g>
		<path style="fill:#14A085;" d="M255.416,441.099c-23.22,0.924-46.054-6.153-64.681-20.047c-2.315-1.763-4.617-3.616-6.935-5.483
			c-6.412-5.719-13.596-10.509-21.341-14.228c-9.889-3.32-20.301-4.804-30.724-4.379c-4.875-0.026-8.806-4-8.78-8.875
			c0.026-4.875,4-8.806,8.875-8.78h0.095c12.666-0.467,25.305,1.469,37.25,5.707c9.333,4.325,17.986,9.985,25.69,16.802
			c2.194,1.763,4.371,3.517,6.565,5.185c15.544,11.576,34.629,17.389,53.987,16.444c19.357,0.945,38.44-4.868,53.983-16.444
			c2.198-1.668,4.375-3.422,6.569-5.185c7.703-6.817,16.357-12.476,25.69-16.802c11.945-4.238,24.584-6.174,37.25-5.707h0.095
			c4.875-0.026,8.849,3.905,8.875,8.78c0.026,4.875-3.905,8.849-8.78,8.875c-10.423-0.425-20.835,1.059-30.724,4.379
			c-7.745,3.72-14.929,8.509-21.341,14.228c-2.319,1.866-4.621,3.72-6.94,5.483C301.467,434.947,278.635,442.024,255.416,441.099z"
			/>
		<path style="fill:#14A085;" d="M471.692,315.041c-6.028,8.448-16.051,13.107-26.395,12.27c-2.094,0.012-4.188-0.106-6.268-0.353
			c-1.766-0.177-3.531-0.441-5.297-0.794c-0.583,0.107-1.173,0.166-1.766,0.177c-0.53,0-53.054,0.441-87.217,29.308
			c-32.486,27.454-62.499,41.313-89.335,41.313s-56.85-13.859-89.335-41.313c-34.251-28.954-86.687-29.308-87.217-29.308
			c-0.592-0.011-1.183-0.07-1.766-0.177c-1.766,0.353-3.531,0.618-5.297,0.794c-2.08,0.247-4.173,0.365-6.268,0.353
			c-10.344,0.837-20.367-3.823-26.394-12.27c-8.563-13.418-3.09-32.132,3.09-45.374c1.324-2.856,4.071-4.788,7.206-5.069
			s6.182,1.133,7.991,3.709c1.81,2.575,2.107,5.921,0.781,8.775c-5.826,12.535-7.415,23.481-4.149,28.513
			c3.09,4.767,12.888,4.149,15.801,3.796c2.374-0.246,4.732-0.629,7.062-1.148c13.157-3.254,25.872-8.086,37.87-14.389
			c3.972-1.854,7.945-3.796,12.006-5.561c36.105-16.243,76.977-23.746,128.618-23.746s92.513,7.503,128.618,23.746
			c4.061,1.766,8.033,3.708,12.006,5.561c11.998,6.303,24.714,11.135,37.87,14.389c2.33,0.518,4.688,0.901,7.062,1.148
			c2.913,0.353,12.712,0.971,15.801-3.796c3.266-5.032,1.677-15.978-4.149-28.513c-1.326-2.854-1.029-6.2,0.781-8.775
			c1.81-2.575,4.856-3.989,7.991-3.709s5.882,2.213,7.206,5.069C474.781,282.997,480.255,301.623,471.692,315.041z"/>
	</g>
</g>
<g>
</g>
<g>
</g>
<g>
</g>
<g>
</g>
<g>
</g>
<g>
</g>
<g>
</g>
<g>
</g>
<g>
</g>
<g>
</g>
<g>
</g>
<g>
</g>
<g>
</g>
<g>
</g>
<g>
</g>
</svg>
