<?xml version="1.0" encoding="iso-8859-1"?>
<!-- Generator: Adobe Illustrator 19.0.0, SVG Export Plug-In . SVG Version: 6.00 Build 0)  -->
<svg version="1.1" id="Capa_1" xmlns="http://www.w3.org/2000/svg" xmlns:xlink="http://www.w3.org/1999/xlink" x="0px" y="0px"
	 viewBox="0 0 511.369 511.369" style="enable-background:new 0 0 511.369 511.369;" xml:space="preserve">
<g>
	<g>
		<g>
			<path d="M496.776,264.865c-7.999-13.613-13.5-28.547-16.242-44.096c-0.903-8.162-2.268-16.267-4.089-24.274
				c17.834-27.524,22.577-61.528,12.955-92.882c-9.622-31.354-32.622-56.844-62.825-69.627c-27.625-11.575-58.741-11.575-86.367,0
				c-11.81,5.033-22.652,12.086-32.038,20.844c-17.302-3.138-34.892-4.409-52.466-3.79c-17.757-0.646-35.531,0.651-53.005,3.867
				c-9.406-8.794-20.278-15.874-32.124-20.921c-27.625-11.575-58.741-11.575-86.367,0c-30.41,12.761-53.547,38.417-63.107,69.98
				s-4.55,65.745,13.668,93.236c-1.754,7.775-3.091,15.637-4.007,23.555c-2.703,15.566-8.181,30.519-16.175,44.146
				c-19.595,38.29-19.443,83.696,0.408,121.854c18.871,35.208,55.921,60.929,110.138,76.45
				c22.294,6.021,44.957,10.578,67.846,13.642c6.833,0.996,13.571,2.354,20.3,3.708c13.985,3.278,28.267,5.124,42.625,5.508
				c14.186-0.418,28.293-2.263,42.108-5.508c6.733-1.354,13.471-2.712,20.329-3.713c22.881-3.063,45.538-7.618,67.825-13.637
				c54.208-15.517,91.258-41.237,110.125-76.438C516.222,348.619,516.402,303.171,496.776,264.865z M481.252,378.698
				c-16.608,30.988-50.175,53.9-99.775,68.1c-21.564,5.805-43.482,10.2-65.617,13.158c-7.217,1.054-14.329,2.483-21.208,3.867
				c-12.877,3.05-26.031,4.784-39.259,5.175c-13.056-0.425-26.036-2.158-38.746-5.175c-6.879-1.383-13.992-2.813-21.183-3.862
				c-22.142-2.957-44.067-7.354-65.638-13.163c-49.604-14.2-83.179-37.112-99.783-68.1c-17.242-33.202-17.346-72.696-0.279-105.988
				c9.008-15.438,15.096-32.403,17.958-50.046c0.309-2.737,0.755-5.407,1.164-8.097l0.066,0.072
				c2.156,2.156,5.297,2.997,8.242,2.208c2.944-0.789,5.244-3.089,6.033-6.033c0.789-2.945-0.053-6.086-2.208-8.242
				c-22.07-22.097-31.713-53.719-25.729-84.371C41.272,87.55,62.1,61.877,90.86,49.702c23.373-9.783,49.694-9.783,73.067,0
				c22.504,9.543,40.419,27.458,49.963,49.963c1.836,4.34,6.843,6.37,11.183,4.533s6.37-6.843,4.533-11.183
				c-3.506-8.19-7.989-15.925-13.354-23.037c12.866-1.731,25.856-2.36,38.829-1.879c0.212,0.009,0.938,0.009,1.142,0
				c12.811-0.468,25.639,0.145,38.347,1.831c-5.38,7.126-9.876,14.877-13.389,23.085c-1.188,2.807-0.788,6.036,1.05,8.468
				c1.837,2.432,4.833,3.7,7.858,3.325c3.025-0.375,5.621-2.336,6.809-5.143c9.543-22.504,27.458-40.419,49.963-49.963
				c23.373-9.783,49.694-9.783,73.067,0c28.792,12.142,49.651,37.819,55.637,68.487c5.987,30.668-3.684,62.305-25.796,84.384
				c-2.156,2.156-2.997,5.297-2.208,8.242c0.789,2.944,3.089,5.244,6.033,6.033c2.944,0.789,6.086-0.053,8.242-2.208
				c0.184-0.184,0.34-0.389,0.522-0.574c0.43,2.852,0.894,5.667,1.22,8.628c2.913,17.633,9.027,34.584,18.042,50.017
				C498.701,306.006,498.565,345.521,481.252,378.698z"/>
			<path d="M127.393,212.998c42.415,0,76.8-34.385,76.8-76.8s-34.385-76.8-76.8-76.8s-76.8,34.385-76.8,76.8
				C50.642,178.593,84.998,212.949,127.393,212.998z M127.393,195.931c-2.975-0.023-5.944-0.269-8.882-0.735
				c-5.275-7.221-8.139-15.922-8.185-24.865c0.026-5.785,1.253-11.501,3.602-16.787c9.556,8.28,22.934,10.533,34.675,5.839
				c11.741-4.693,19.879-15.548,21.094-28.133c6.626,2.829,12.417,7.31,16.819,13.014
				C182.468,173.83,157.234,195.881,127.393,195.931z M118.86,127.664c-0.063-8.79,6.515-16.212,15.25-17.204
				c8.734-0.992,16.81,4.765,18.72,13.346c1.91,8.581-2.962,17.219-11.292,20.025c-8.331,2.806-17.436-1.125-21.107-9.112
				l-0.092-0.17C119.368,132.383,118.864,130.038,118.86,127.664z M69.966,119.709c7.338-25.622,30.776-43.271,57.427-43.244
				c26.628,0.043,50.02,17.688,57.376,43.28c-5.732-3.579-12.031-6.155-18.628-7.62c-7.145-14.042-22.996-21.342-38.311-17.643
				c-15.315,3.698-26.088,17.428-26.037,33.183c0.048,3.344,0.594,6.663,1.62,9.846c-6.604,9.672-10.142,21.109-10.154,32.82
				c0.069,5.58,0.923,11.123,2.536,16.466C73.17,172.711,62.628,145.33,69.966,119.709z"/>
			<path d="M383.393,212.998c42.415,0,76.8-34.385,76.8-76.8s-34.385-76.8-76.8-76.8s-76.8,34.385-76.8,76.8
				C306.641,178.593,340.997,212.95,383.393,212.998z M383.393,195.931c-2.975-0.023-5.944-0.269-8.882-0.735
				c-5.275-7.221-8.139-15.922-8.185-24.865c0.026-5.785,1.253-11.501,3.602-16.787c9.556,8.28,22.935,10.533,34.675,5.839
				s19.879-15.548,21.094-28.134c6.627,2.83,12.418,7.312,16.819,13.019C438.464,173.831,413.232,195.879,383.393,195.931z
				 M374.86,127.664c-0.063-8.79,6.515-16.212,15.25-17.204c8.734-0.992,16.81,4.765,18.72,13.346
				c1.91,8.581-2.962,17.219-11.292,20.025c-8.331,2.806-17.436-1.125-21.107-9.112l-0.092-0.17
				C375.368,132.383,374.864,130.038,374.86,127.664z M325.966,119.709c7.338-25.622,30.776-43.271,57.427-43.244
				c26.627,0.045,50.017,17.688,57.375,43.279c-5.731-3.578-12.03-6.154-18.626-7.618c-7.145-14.043-22.996-21.343-38.312-17.645
				s-26.089,17.428-26.038,33.184c0.048,3.344,0.594,6.663,1.62,9.846c-6.604,9.672-10.142,21.109-10.154,32.82
				c0.069,5.58,0.923,11.123,2.536,16.466C329.17,172.711,318.628,145.33,325.966,119.709z"/>
			<path d="M153.535,241.598c1.656,4.413,6.575,6.647,10.987,4.992c1.475-0.554,36.321-13.779,54.583-34.321
				c9.581-9.859,22.555-15.7,36.287-16.338c13.751,0.56,26.752,6.414,36.288,16.338c18.262,20.542,53.108,33.766,54.583,34.321
				c4.413,1.656,9.332-0.579,10.987-4.992c1.656-4.413-0.579-9.332-4.992-10.987c-0.321-0.121-32.392-12.321-47.821-29.683
				c-12.804-13.527-30.429-21.456-49.046-22.063c-18.616,0.607-36.241,8.535-49.046,22.063
				c-15.429,17.362-47.5,29.562-47.821,29.684C154.114,232.266,151.879,237.186,153.535,241.598z"/>
			<path d="M234.51,222.431l-17.067,8.533c-4.204,2.114-5.903,7.232-3.799,11.441c2.104,4.209,7.218,5.92,11.432,3.826l17.067-8.533
				c4.204-2.114,5.903-7.232,3.799-11.441C243.837,222.048,238.723,220.337,234.51,222.431z"/>
			<path d="M276.276,222.431c-2.728-1.372-5.982-1.182-8.531,0.499c-2.55,1.681-4.007,4.596-3.822,7.644
				c0.185,3.048,1.985,5.765,4.72,7.124l17.067,8.533c4.214,2.094,9.328,0.383,11.432-3.826c2.104-4.209,0.405-9.327-3.798-11.441
				L276.276,222.431z"/>
			<path d="M374.86,375.131h-0.092c-12.243-0.452-24.462,1.42-36.008,5.517c-9.021,4.181-17.387,9.652-24.833,16.242
				c-2.121,1.704-4.225,3.4-6.35,5.013c-15.024,11.19-33.472,16.81-52.183,15.896c-18.713,0.913-37.161-4.706-52.188-15.896
				c-2.121-1.613-4.225-3.308-6.346-5.013c-7.447-6.589-15.812-12.06-24.833-16.242c-11.547-4.096-23.765-5.968-36.008-5.517h-0.092
				c-4.713-0.025-8.554,3.775-8.579,8.487c-0.025,4.713,3.775,8.554,8.488,8.579c10.075-0.411,20.141,1.024,29.7,4.233
				c7.487,3.596,14.431,8.226,20.629,13.754c2.242,1.804,4.467,3.596,6.704,5.3c18.006,13.432,40.079,20.273,62.525,19.379
				c22.445,0.894,44.516-5.947,62.521-19.379c2.242-1.704,4.467-3.496,6.708-5.3c6.198-5.529,13.142-10.159,20.629-13.754
				c9.559-3.209,19.625-4.644,29.7-4.233c4.713-0.025,8.513-3.866,8.487-8.579S379.572,375.106,374.86,375.131z"/>
			<path d="M454.517,264.211c-3.042-0.278-6,1.091-7.756,3.59c-1.756,2.499-2.043,5.746-0.751,8.513
				c5.608,12.129,7.167,22.671,4.05,27.521c-2.992,4.688-12.467,4.025-15.325,3.713c-15.211-2.534-29.886-7.613-43.408-15.025
				c-3.842-1.821-7.7-3.65-11.613-5.404c-39.308-16.497-81.714-24.315-124.321-22.921c-42.608-1.394-85.015,6.424-124.325,22.921
				c-3.912,1.754-7.767,3.583-11.608,5.404c-13.522,7.413-28.197,12.492-43.408,15.025c-2.837,0.325-12.325,0.979-15.333-3.713
				c-3.104-4.85-1.55-15.396,4.063-27.521c1.974-4.277,0.11-9.345-4.165-11.323s-9.345-0.118-11.326,4.156
				c-5.942,12.842-11.275,30.883-2.945,43.887c5.843,8.148,15.531,12.636,25.525,11.825c2.024-0.005,4.047-0.121,6.059-0.346
				c1.892-0.209,3.741-0.509,5.58-0.83c0.4,0.113,0.807,0.196,1.219,0.246c0.508,0,51.158,0.325,84.321,28.329
				c31.379,26.5,60.433,39.938,86.346,39.938c25.913,0,54.967-13.438,86.346-39.938c33.033-27.896,83.821-28.329,84.329-28.329
				c0.409-0.051,0.814-0.133,1.21-0.246c1.84,0.32,3.689,0.62,5.582,0.83c2.012,0.225,4.034,0.341,6.059,0.346
				c9.991,0.811,19.675-3.675,25.517-11.821c8.333-13.004,3-31.046-2.942-43.892C460.219,266.372,457.559,264.489,454.517,264.211z
				 M330.731,339.219c-35.15,29.683-60.371,35.913-75.338,35.913c-14.967,0-40.188-6.229-75.337-35.913
				c-17.568-14.002-38.229-23.601-60.26-27.997c2.342-1.087,4.669-2.18,6.981-3.278c3.729-1.77,7.475-3.546,11.271-5.25
				c37.122-15.49,77.145-22.799,117.346-21.429c40.199-1.37,80.222,5.939,117.342,21.429c3.8,1.704,7.546,3.479,11.275,5.25
				c2.31,1.096,4.637,2.189,6.981,3.278C368.96,315.618,348.299,325.217,330.731,339.219z"/>
		</g>
	</g>
</g>
<g>
</g>
<g>
</g>
<g>
</g>
<g>
</g>
<g>
</g>
<g>
</g>
<g>
</g>
<g>
</g>
<g>
</g>
<g>
</g>
<g>
</g>
<g>
</g>
<g>
</g>
<g>
</g>
<g>
</g>
</svg>
